<?xml version="1.0" standalone="no"?><!DOCTYPE svg PUBLIC "-//W3C//DTD SVG 1.1//EN" "http://www.w3.org/Graphics/SVG/1.1/DTD/svg11.dtd"><svg t="1744780352446" class="icon" viewBox="0 0 1064 1024" version="1.1" xmlns="http://www.w3.org/2000/svg" p-id="2361" xmlns:xlink="http://www.w3.org/1999/xlink" width="207.8125" height="200"><path d="M980.3776 879.24736l1.6384 23.92064c-135.41376 9.54368-212.33664 45.01504-333.49632 120.832l-12.41088-20.31616c124.60032-77.94688 203.85792-114.52416 344.2688-124.43648z m42.1888-106.86464l0.8192 23.87968c-196.77184 6.67648-404.97152 91.46368-556.8512 226.9184l-15.60576-17.94048c155.89376-138.97728 369.664-226.05824 571.63776-232.8576zM82.7392 912.83456c56.23808 14.336 145.16224 50.9952 199.2704 90.7264l-13.9264 19.37408C218.3168 986.27584 131.8912 949.94432 77.0048 935.936l5.77536-23.1424zM697.87648 84.54144v115.13856l57.01632 58.08128 0.04096-171.66336h23.63392l-0.04096 173.4656 58.69568-59.8016V84.54144h23.63392V570.5728l-82.3296 82.41152v65.98656l13.43488-3.76832c95.10912-26.05056 189.6448-38.33856 272.9984-36.6592l-0.49152 23.87968c-119.15264-2.41664-259.80928 25.31328-385.8432 76.06272-144.7936 58.368-262.67648 142.45888-340.82816 243.13856l-18.55488-14.70464c7.04512-9.05216 14.336-17.94048 21.87264-26.624l10.48576-11.75552-6.9632-5.16096a752.4352 752.4352 0 0 0-303.43168-132.34176l4.5056-23.42912a775.61856 775.61856 0 0 1 313.58976 137.13408l8.68352 6.47168 8.76544-8.76544c12.41088-12.20608 25.31328-24.00256 38.66624-35.38944l2.70336-2.29376-4.58752-3.93216c-50.62656-41.86112-115.63008-80.2816-189.0304-111.49312A997.21216 997.21216 0 0 0 0 723.3536l3.76832-23.51104a1018.6752 1018.6752 0 0 1 267.01824 84.25472l11.83744 5.81632v22.77376h23.63392l-0.04096-10.73152 17.08032 9.29792c39.3216 21.99552 74.83392 46.03904 105.39008 71.35232l8.15104 6.92224 5.85728-4.58752c23.18336-18.0224 47.5136-34.85696 72.74496-50.54464l2.90816-1.8432v1.6384h23.63392v-15.68768l4.096-2.37568a1054.63808 1054.63808 0 0 1 195.54304-85.8112l13.27104-4.21888v-74.752l-80.60928-80.73216V84.54144h23.59296zM367.98464 951.21408l-3.4816 3.56352a667.2384 667.2384 0 0 0-11.8784 12.61568l-1.024 1.14688 10.24 7.70048 14.21312-19.00544-8.06912-6.02112z m68.85376-61.72672l-7.94624 6.3488-10.77248 8.92928 7.7824 6.63552 15.5648-17.94048-4.62848-3.97312zM461.4144 0v115.05664l56.9344 57.99936V1.4336h23.63392v173.58848l58.81856-59.92448V0h23.63392v486.03136l-82.45248 82.37056v250.0608l-11.34592 6.63552-12.288 7.41376v-265.8304l-80.52736-80.6912V0h23.63392zM225.6896 83.84512v115.0976L282.624 256.94208V85.27872h23.63392L306.21696 258.8672l58.81856-59.88352V83.84512h23.63392v496.51712l-82.45248 82.41152v139.14112a850.16576 850.16576 0 0 0-17.53088-9.05216l-6.06208-2.99008v-128.86016l-80.52736-80.65024V83.84512h23.59296z m552.83712 635.12576l-3.35872 0.98304c-5.61152 1.6384-11.18208 3.2768-16.7936 5.03808l-3.4816 1.06496 0.04096 13.59872h23.63392l-0.04096-20.6848zM282.624 627.38432v33.62816l3.56352 3.52256 9.13408-9.33888-7.3728-7.61856 7.41376-7.45472-12.73856-12.73856z m23.59296 1.88416l-10.8544 10.8544 7.45472 7.45472-7.49568 7.61856 9.17504 9.33888 1.72032-1.76128v-33.50528z m448.67584-11.59168v33.62816l3.4816 3.44064 9.17504-9.37984-7.41376-7.5776 7.41376-7.45472-12.65664-12.65664z m23.63392 1.67936l-10.97728 10.97728 7.45472 7.45472-7.45472 7.5776 9.216 9.4208 1.76128-1.80224v-33.62816zM365.03552 517.9392l-58.81856 59.92448v51.4048l58.85952-58.81856-0.04096-52.51072z m-139.34592 0.08192v52.4288l56.9344 56.9344v-51.36384l-56.9344-57.99936z m611.5328 0.73728l-58.69568 59.8016v40.79616l58.73664-58.69568-0.04096-41.90208z m-139.34592 0.04096v41.86112l57.01632 57.01632v-40.83712l-57.01632-58.04032z m80.65024 25.88672l-10.97728 11.18208 7.49568 7.65952-7.53664 7.53664 9.25696 9.29792 1.76128-1.80224v-33.87392z m-23.63392-1.72032v33.87392l3.39968 3.4816 9.216-9.25696-7.49568-7.53664 7.53664-7.65952-12.65664-12.9024zM282.624 542.1056v33.91488l3.52256 3.56352 9.216-9.29792-7.53664-7.53664 7.49568-7.70048-12.6976-12.94336z m23.59296 1.88416l-10.89536 11.0592 7.5776 7.74144-7.53664 7.49568 9.25696 9.29792 1.59744-1.72032v-33.87392z m212.13184-10.93632v33.62816l3.56352 3.52256 9.17504-9.33888-7.3728-7.61856 7.3728-7.45472-12.73856-12.73856z m23.63392 1.88416l-10.89536 10.8544 7.45472 7.45472-7.45472 7.61856 9.13408 9.33888 1.76128-1.80224v-33.46432z m295.23968-138.15808l-58.69568 59.84256v88.064l58.69568-59.8016V396.77952zM365.03552 232.8576L306.21696 292.82304v126.93504l-10.8544 12.45184 6.7584 7.7824-6.79936 5.98016 10.89536 9.66656v88.35072l58.81856-59.92448V388.3008l21.87264-25.14944-17.73568-15.7696-4.13696 4.75136V232.8576z m332.84096 163.84v88.18688l57.01632 58.08128v-88.18688l-57.01632-58.08128zM225.6896 388.25984v95.88736l56.9344 57.9584v-88.35072L225.6896 388.25984z m375.11168 3.72736l-58.81856 59.88352v83.06688l58.81856-58.81856V391.9872z m-139.38688 0.04096v84.09088l56.9344 56.9344v-83.02592l-56.9344-57.99936z m233.0624 89.37472l-16.7936 16.7936 20.19328 20.60288v-33.91488l-3.44064-3.4816z m146.14528 0l-3.39968 3.4816v33.87392l20.19328-20.52096-16.7936-16.83456z m-618.33216-0.77824l-16.7936 16.83456 20.19328 20.56192v-33.87392l-3.39968-3.52256z m146.14528 0l-3.39968 3.44064v33.87392l20.19328-20.48-16.7936-16.83456z m410.09152-57.91744l-10.93632 11.14112 6.22592 6.30784-6.30784 6.26688 10.60864 10.6496 0.4096-0.45056v-33.91488z m-23.63392-1.8432v33.91488l2.12992 2.17088 10.48576-10.52672-6.144-6.144 6.22592-6.43072-12.6976-12.98432zM365.03552 352.13312v36.16768l-58.69568 67.50208-0.12288-0.16384v-35.88096l58.81856-67.62496zM282.624 417.5872v36.16768l1.76128 1.96608 10.93632-9.74848-6.71744-5.9392 6.7584-7.82336-12.73856-14.62272z m259.35872 0.4096l-10.93632 11.10016 7.5776 7.70048-7.53664 7.49568 9.25696 9.33888 1.6384-1.76128v-33.87392z m-23.63392-1.8432v33.87392l3.52256 3.60448 9.216-9.33888-7.49568-7.49568 7.45472-7.70048-12.6976-12.94336z m318.8736-182.4768l-58.69568 59.8016v129.2288l58.69568-59.8016V233.6768z m-139.34592-0.04096v129.14688l57.01632 58.08128V291.71712l-57.01632-58.08128z m-97.0752 36.37248l-58.81856 59.88352v88.10496l58.81856-59.92448v-88.064zM225.6896 232.81664v119.27552l56.9344 65.49504V290.85696L225.6896 232.81664z m235.7248 37.10976v88.22784l56.9344 57.99936V327.92576l-56.9344-57.99936z m380.5184 88.18688l-4.7104 4.79232v33.87392l21.504-21.83168-16.7936-16.7936z m-148.72576-0.12288l-16.7936 16.83456 21.46304 21.87264v-33.91488l-4.66944-4.79232z m-235.19232-3.31776l-16.7936 16.7936 20.19328 20.56192v-33.87392l-3.39968-3.4816z m146.18624 0l-3.39968 3.39968v33.91488l20.15232-20.48-16.7936-16.83456z m-382.64832-7.3728l-17.73568 15.81056 21.87264 25.14944v-36.16768l-4.13696-4.75136z m320.43008-51.28192l-10.8544 11.0592 6.26688 6.3488-6.38976 6.3488 10.56768 10.60864 0.4096-0.49152v-33.87392z m-23.63392-2.00704v33.91488l2.2528 2.33472 10.40384-10.48576-6.18496-6.22592 6.30784-6.47168-12.77952-13.06624z m82.45248-144.9984l-58.81856 59.92448v87.08096l58.81856-59.96544V149.01248z m-139.38688 0v86.99904l56.9344 57.99936V207.01184l-56.9344-57.99936z m317.11232 110.55104l-10.93632 11.14112 6.26688 6.43072-6.26688 6.26688 10.48576 10.52672 0.45056-0.45056v-33.91488z m-23.63392-1.80224v33.95584l2.21184 2.21184 10.48576-10.52672-6.26688-6.26688 6.26688-6.43072-12.6976-12.94336zM306.21696 258.8672l-10.8544 11.0592 6.26688 6.3488-6.38976 6.38976 10.56768 10.56768 0.4096-0.4096V258.8672zM282.624 256.94208v33.91488l2.2528 2.2528 10.36288-10.4448-6.18496-6.26688 6.30784-6.47168-12.73856-12.98432z m322.7648-25.51808l-4.58752 4.62848v33.95584l21.38112-21.74976-16.7936-16.83456z m-148.64384-0.12288l-16.75264 16.7936 21.42208 21.83168v-33.91488l-4.66944-4.7104z m385.18784-36.33152l-4.7104 4.79232v33.91488l21.46304-21.87264-16.75264-16.7936z m-148.6848 0l-16.7936 16.83456 21.42208 21.83168v-33.95584l-4.62848-4.7104z m-323.584-0.69632l-4.62848 4.7104v33.87392l21.38112-21.74976-16.75264-16.7936z m-148.6848-0.12288l-16.71168 16.83456 21.42208 21.83168v-33.87392l-4.66944-4.79232z m321.00352-19.12832l-10.8544 11.0592 6.22592 6.38976-6.3488 6.3488 10.56768 10.60864 0.4096-0.49152v-33.91488z m-23.63392-1.96608v33.95584l2.2528 2.2528 10.40384-10.4448-6.18496-6.22592 6.30784-6.51264-12.77952-13.02528z m-61.60384-62.75072l-16.7936 16.83456 21.46304 21.87264v-33.95584l-4.66944-4.75136z m148.6848 0.16384l-4.62848 4.62848v33.91488l21.38112-21.7088-16.7936-16.83456z" fill="#245399" p-id="2362"></path></svg>